<svg width="74" height="74" viewBox="0 0 74 74" style="fill:none;stroke:none;fill-rule:evenodd;clip-rule:evenodd;stroke-linecap:round;stroke-linejoin:round;stroke-miterlimit:1.5;" version="1.1" xmlns="http://www.w3.org/2000/svg" xmlns:xlink="http://www.w3.org/1999/xlink">
	<g id="items" style="isolation: isolate">
		<g id="blend" style="mix-blend-mode: normal">
			<g id="g-root-ic_lamp_v5hhy7sx632k-fill" data-item-order="1000000000" transform="translate(3, 3)"></g>
			<g id="g-root-ic_lamp_v5hhy7sx632k-stroke" data-item-order="1000000000" transform="translate(3, 3)">
				<g id="ic_lamp_v5hhy7sx632k-stroke" fill="none" stroke-linecap="round" stroke-linejoin="round" stroke-miterlimit="4" stroke="#ba5de5" stroke-width="2">
					<g><path d="M 13 34.5L 55 34.5C 55 34.5 57 34.5 57 36.5L 57 48.5C 57 48.5 57 50.5 55 50.5L 13 50.5C 13 50.5 11 50.5 11 48.5L 11 36.5C 11 36.5 11 34.5 13 34.5M 27 34.5L 27 50.5M 41 34.5L 41 50.5M 11 42.5L 27 42.5M 15 56.5L 21 50.5M 53 56.5L 47 50.5M 17 54.5L 51 54.5M 19 24.5L 21 24.5C 22.104568 24.5 23 25.395432 23 26.5L 23 34.5L 23 34.5L 17 34.5L 17 34.5L 17 26.5C 17 25.395432 17.895432 24.5 19 24.5ZM 20 24.5C 19.718245 21.486557 18.337101 18.682264 16.119999 16.622M 56.377998 22.014C 56.527695 22.611565 56.393658 23.244774 56.014668 23.730427C 55.635681 24.21608 55.054028 24.499985 54.438 24.5L 39.562 24.5C 38.945969 24.499985 38.364319 24.21608 37.985329 23.730427C 37.606342 23.244774 37.472305 22.611565 37.622002 22.014L 39.622002 14.014C 39.844917 13.124138 40.644642 12.500024 41.562 12.5L 52.438 12.5C 53.355358 12.500024 54.155083 13.124138 54.377998 14.014ZM 51.442001 34.5C 53.61834 32.10202 53.499123 28.4097 51.172623 26.157106C 48.846123 23.904514 45.151878 23.904514 42.825382 26.157106C 40.498878 28.4097 40.379662 32.10202 42.556 34.5ZM 31.5 42C 31.776142 42 32 42.223858 32 42.5C 32 42.776142 31.776142 43 31.5 43C 31.223858 43 31 42.776142 31 42.5C 31 42.223858 31.223858 42 31.5 42M 52.5 42C 52.776142 42 53 42.223858 53 42.5C 53 42.776142 52.776142 43 52.5 43C 52.223858 43 52 42.776142 52 42.5C 52 42.223858 52.223858 42 52.5 42M 17 14.5C 17 16.156855 15.656855 17.5 14 17.5C 12.344 17.5 11 14.5 11 14.5L 14 11.5C 14 11.5 17 12.844 17 14.5Z"></path></g>
				</g>
			</g>
		</g>
	</g>
</svg>